<?xml version="1.0" encoding="UTF-8"?>
<!DOCTYPE svg PUBLIC "-//W3C//DTD SVG 1.1//EN" "http://www.w3.org/Graphics/SVG/1.1/DTD/svg11.dtd">
<!-- Creator: CorelDRAW 2021 (64-Bit) -->
<svg xmlns="http://www.w3.org/2000/svg" xml:space="preserve" width="188.871mm" height="126.409mm" version="1.1" style="shape-rendering:geometricPrecision; text-rendering:geometricPrecision; image-rendering:optimizeQuality; fill-rule:evenodd; clip-rule:evenodd"
viewBox="0 0 2300.04 1539.39"
 xmlns:xlink="http://www.w3.org/1999/xlink"
 xmlns:xodm="http://www.corel.com/coreldraw/odm/2003">
 <defs>
  <style type="text/css">
   <![CDATA[
    .fil0 {fill:#FCFEFD}
   ]]>
  </style>
   <clipPath id="id0">
    <path d="M571.41 229.75c86.39,-84.37 168.45,-136.84 279.41,-177.48 22.19,-3.47 35.62,-7.42 53.72,-17.71l2.24 -8.05c159.7,-35.92 324.12,-35.09 492.18,1.02 0.82,3.42 -0.06,11.36 4.85,12.81 15.56,4.62 39.73,13.66 54.27,13.75 89.71,35.89 184.17,84.02 279.44,176.12 4.85,-38.93 41.88,-35.36 64.79,-38.28 194.15,-24.8 616.13,385.51 466.15,673.49 -60.44,116.06 -248.03,74.7 -309.82,-310.36l-48.12 14.86 31.15 175.96 -22.83 18.14c70.65,459.71 -139.98,578.68 -539.26,728.55 -191.29,71.8 -366.38,63.96 -629.79,-43.96 -339.38,-139.06 -455.87,-443.7 -365.27,-690.4l-23.88 -4.6 13.55 -94.12 13.88 -5.37 9.07 -101.45 -52.14 2.69c-12.58,146.45 -80.98,296.14 -160.53,356.24 -44.2,31.19 -87.34,27.68 -120.56,-14.41 -205.88,-260.85 133.87,-606.95 340,-701.26 69.49,-31.79 150.41,-11.94 167.52,33.84z"/>
   </clipPath>
   <clipPath id="id1">
    <rect x="30.79" y="479.98" width="103.11" height="120.63"/>
   </clipPath>
 </defs>
 <g id="Layer_x0020_1">
  <metadata id="CorelCorpID_0Corel-Layer"/>
  <g style="clip-path:url(#id0)">
   <image id="PuppizenRt9.png" x="-1044.22" y="-592.57" width="4399.17" height="4399.17" xlink:href="PuppizenAi_Images\PuppizenAi_ImgID1.png"/>
  </g>
  <g style="clip-path:url(#id1)">
   <image x="30.79" y="479.98" width="103.11" height="120.63" xlink:href="PuppizenAi_Images\PuppizenAi_ImgID2.png"/>
  </g>
  <path class="fil0" d="M2175.47 502.27c-12.59,54.28 -18.47,51.92 5.79,77.92 24.26,26 44.64,22.99 65.63,18.62 20.98,-4.38 23.73,-6.71 5.77,-50.34 -17.95,-43.63 -64.6,-100.47 -77.19,-46.2z"/>
 </g>
</svg>
